<?xml version="1.0" encoding="UTF-8"?>
<svg width="285px" height="40px" viewBox="0 0 285 40" version="1.1" xmlns="http://www.w3.org/2000/svg" xmlns:xlink="http://www.w3.org/1999/xlink">
    <!-- Generator: Sketch 60.1 (88133) - https://sketch.com -->
    <title>Group Copy</title>
    <desc>Created with Sketch.</desc>
    <g id="Page-1" stroke="none" stroke-width="1" fill="none" fill-rule="evenodd">
        <g id="Group-Copy" fill-rule="nonzero">
            <g id="noun_Glasses_1634654" fill="#0091FF">
                <path d="M70,0 C67.239,0 64.739,1.12 62.93,2.93 L51.565,14.291 C50.045,13.688 48.401,13.334 46.667,13.334 C40.462,13.334 35.293,17.593 33.806,23.334 L26.195,23.334 C25.086,19.048 21.922,15.628 17.794,14.155 L24.311,7.643 C24.676,7.279 25.467,6.666 26.668,6.666 C28.506,6.667 30,8.161 30,10 L30,13.333 L36.667,13.333 L36.667,10 C36.667,4.476 32.19,0 26.667,0 C23.906,0 21.406,1.12 19.597,2.93 L8.138,14.385 C3.353,16.411 0,21.147 0,26.666 C0,34.029 5.97,40 13.333,40 C19.385,40 24.437,35.94 26.067,30.416 L33.932,30.416 C35.563,35.94 40.615,40 46.667,40 C54.03,40 60,34.029 60,26.666 C60,23.482 58.838,20.6 56.976,18.307 L67.644,7.643 C68.008,7.279 68.799,6.666 70,6.666 C71.839,6.666 73.333,8.16 73.333,9.999 L73.333,13.332 L80,13.332 L80,10 C80,4.476 75.524,0 70,0 Z M13.333,33.334 C9.651,33.334 6.667,30.348 6.667,26.666 C6.667,22.984 9.651,20 13.333,20 C17.015,20 20,22.984 20,26.666 C20,30.348 17.015,33.334 13.333,33.334 Z M46.667,33.334 C42.985,33.334 40,30.348 40,26.666 C40,22.984 42.985,20 46.667,20 C50.349,20 53.333,22.984 53.333,26.666 C53.333,30.348 50.349,33.334 46.667,33.334 Z" id="Shape"></path>
            </g>
            <path d="M92.6035156,34 L94.3261719,27.2734375 L102.959961,27.2734375 L104.641602,34 L111.327148,34 L103.103516,3.66894531 L94.7363281,3.66894531 L86.328125,34 L92.6035156,34 Z M101.626953,22.6181641 L95.5771484,22.6181641 L98.46875,9.51367188 L98.5507812,9.51367188 L101.626953,22.6181641 Z M121.411523,34.4101562 C127.181055,34.4101562 130.06582,31.6689453 130.06582,26.1865234 L130.06582,26.1865234 L124.139062,26.1865234 C124.139062,27.5947266 123.910059,28.6884766 123.452051,29.4677734 C122.994043,30.2470703 122.313867,30.6367188 121.411523,30.6367188 C120.65957,30.6367188 120.095605,30.4248047 119.719629,30.0009766 C119.343652,29.5771484 119.077051,28.8183594 118.919824,27.7246094 C118.762598,26.6308594 118.683984,24.9833984 118.683984,22.7822266 C118.683984,21.7841797 118.697656,20.984375 118.725,20.3828125 C118.752344,19.78125 118.817285,19.1762695 118.919824,18.5678711 C119.022363,17.9594727 119.169336,17.5014648 119.360742,17.1938477 C119.552148,16.8862305 119.81875,16.6367188 120.160547,16.4453125 C120.502344,16.2539062 120.919336,16.1582031 121.411523,16.1582031 C122.354883,16.1582031 123.031641,16.4692383 123.441797,17.0913086 C123.851953,17.7133789 124.057031,18.796875 124.057031,20.3417969 L124.057031,20.3417969 L129.983789,20.3417969 C129.983789,15.0234375 127.126367,12.3642578 121.411523,12.3642578 C120.317773,12.3642578 119.336816,12.4667969 118.468652,12.671875 C117.600488,12.8769531 116.869043,13.1469727 116.274316,13.4819336 C115.67959,13.8168945 115.163477,14.2543945 114.725977,14.7944336 C114.288477,15.3344727 113.94668,15.8847656 113.700586,16.4453125 C113.454492,17.0058594 113.259668,17.6791992 113.116113,18.465332 C112.972559,19.2514648 112.876855,19.996582 112.829004,20.7006836 C112.781152,21.4047852 112.757227,22.2148438 112.757227,23.1308594 C112.757227,24.1699219 112.781152,25.0791016 112.829004,25.8583984 C112.876855,26.6376953 112.979395,27.4375 113.136621,28.2578125 C113.293848,29.078125 113.502344,29.7822266 113.762109,30.3701172 C114.021875,30.9580078 114.36709,31.5185547 114.797754,32.0517578 C115.228418,32.5849609 115.744531,33.015625 116.346094,33.34375 C116.947656,33.671875 117.672266,33.9316406 118.519922,34.1230469 C119.367578,34.3144531 120.331445,34.4101562 121.411523,34.4101562 Z M141.667773,34.4101562 C147.437305,34.4101562 150.32207,31.6689453 150.32207,26.1865234 L150.32207,26.1865234 L144.395312,26.1865234 C144.395312,27.5947266 144.166309,28.6884766 143.708301,29.4677734 C143.250293,30.2470703 142.570117,30.6367188 141.667773,30.6367188 C140.91582,30.6367188 140.351855,30.4248047 139.975879,30.0009766 C139.599902,29.5771484 139.333301,28.8183594 139.176074,27.7246094 C139.018848,26.6308594 138.940234,24.9833984 138.940234,22.7822266 C138.940234,21.7841797 138.953906,20.984375 138.98125,20.3828125 C139.008594,19.78125 139.073535,19.1762695 139.176074,18.5678711 C139.278613,17.9594727 139.425586,17.5014648 139.616992,17.1938477 C139.808398,16.8862305 140.075,16.6367188 140.416797,16.4453125 C140.758594,16.2539062 141.175586,16.1582031 141.667773,16.1582031 C142.611133,16.1582031 143.287891,16.4692383 143.698047,17.0913086 C144.108203,17.7133789 144.313281,18.796875 144.313281,20.3417969 L144.313281,20.3417969 L150.240039,20.3417969 C150.240039,15.0234375 147.382617,12.3642578 141.667773,12.3642578 C140.574023,12.3642578 139.593066,12.4667969 138.724902,12.671875 C137.856738,12.8769531 137.125293,13.1469727 136.530566,13.4819336 C135.93584,13.8168945 135.419727,14.2543945 134.982227,14.7944336 C134.544727,15.3344727 134.20293,15.8847656 133.956836,16.4453125 C133.710742,17.0058594 133.515918,17.6791992 133.372363,18.465332 C133.228809,19.2514648 133.133105,19.996582 133.085254,20.7006836 C133.037402,21.4047852 133.013477,22.2148438 133.013477,23.1308594 C133.013477,24.1699219 133.037402,25.0791016 133.085254,25.8583984 C133.133105,26.6376953 133.235645,27.4375 133.392871,28.2578125 C133.550098,29.078125 133.758594,29.7822266 134.018359,30.3701172 C134.278125,30.9580078 134.62334,31.5185547 135.054004,32.0517578 C135.484668,32.5849609 136.000781,33.015625 136.602344,33.34375 C137.203906,33.671875 137.928516,33.9316406 138.776172,34.1230469 C139.623828,34.3144531 140.587695,34.4101562 141.667773,34.4101562 Z M161.924023,34.4101562 C164.617383,34.4101562 166.702344,33.7265625 168.178906,32.359375 C169.614453,31.0742188 170.373242,29.2421875 170.455273,26.8632812 L170.455273,26.8632812 L164.446484,26.8632812 C164.446484,29.3789062 163.605664,30.6367188 161.924023,30.6367188 C161.500195,30.6367188 161.131055,30.5444336 160.816602,30.3598633 C160.502148,30.175293 160.252637,29.9018555 160.068066,29.5395508 C159.883496,29.1772461 159.729688,28.8149414 159.606641,28.4526367 C159.483594,28.090332 159.398145,27.6323242 159.350293,27.0786133 C159.302441,26.5249023 159.27168,26.0634766 159.258008,25.6943359 C159.244336,25.3251953 159.2375,24.8740234 159.2375,24.3408203 L159.2375,24.3408203 L170.57832,24.3408203 C170.591992,23.8076172 170.598828,23.3017578 170.598828,22.8232422 C170.6125,21.9482422 170.591992,21.1621094 170.537305,20.4648438 C170.455273,19.3984375 170.250195,18.3183594 169.92207,17.2246094 C169.580273,16.1308594 169.09834,15.2524414 168.47627,14.5893555 C167.854199,13.9262695 166.996289,13.3896484 165.902539,12.9794922 C164.808789,12.5693359 163.482617,12.3642578 161.924023,12.3642578 C160.830273,12.3642578 159.849316,12.4667969 158.981152,12.671875 C158.112988,12.8769531 157.381543,13.1469727 156.786816,13.4819336 C156.19209,13.8168945 155.675977,14.2543945 155.238477,14.7944336 C154.800977,15.3344727 154.45918,15.8847656 154.213086,16.4453125 C153.966992,17.0058594 153.772168,17.6791992 153.628613,18.465332 C153.485059,19.2514648 153.389355,19.996582 153.341504,20.7006836 C153.293652,21.4047852 153.269727,22.2148438 153.269727,23.1308594 C153.269727,24.1699219 153.293652,25.0791016 153.341504,25.8583984 C153.389355,26.6376953 153.491895,27.4375 153.649121,28.2578125 C153.806348,29.078125 154.014844,29.7822266 154.274609,30.3701172 C154.534375,30.9580078 154.87959,31.5185547 155.310254,32.0517578 C155.740918,32.5849609 156.257031,33.015625 156.858594,33.34375 C157.460156,33.671875 158.184766,33.9316406 159.032422,34.1230469 C159.880078,34.3144531 160.843945,34.4101562 161.924023,34.4101562 Z M164.651563,21.0185547 L159.2375,21.0185547 C159.2375,20.5673828 159.240918,20.2290039 159.247754,20.003418 C159.25459,19.777832 159.278516,19.4257812 159.319531,18.9472656 C159.360547,18.46875 159.43916,18.0927734 159.555371,17.8193359 C159.671582,17.5458984 159.821973,17.2519531 160.006543,16.9375 C160.191113,16.6230469 160.447461,16.390625 160.775586,16.2402344 C161.103711,16.0898438 161.486523,16.0146484 161.924023,16.0146484 C162.361523,16.0146484 162.744336,16.0795898 163.072461,16.2094727 C163.400586,16.3393555 163.660352,16.5478516 163.851758,16.8349609 C164.043164,17.1220703 164.196973,17.3955078 164.313184,17.6552734 C164.429395,17.9150391 164.511426,18.2670898 164.559277,18.7114258 C164.607129,19.1557617 164.634473,19.5078125 164.641309,19.7675781 C164.648145,20.0273438 164.651563,20.3896484 164.651563,20.8544922 L164.651563,21.0185547 Z M181.175391,34.4101562 C183.595313,34.4101562 185.523047,33.8051758 186.958594,32.5952148 C188.394141,31.3852539 189.111914,29.8369141 189.111914,27.9501953 C189.111914,27.0341797 188.920508,26.2001953 188.537695,25.4482422 C188.154883,24.6962891 187.655859,24.0742188 187.040625,23.5820312 C186.425391,23.0898438 185.748633,22.6386719 185.010352,22.2285156 C184.27207,21.8183594 183.533789,21.4594727 182.795508,21.1518555 C182.057227,20.8442383 181.380469,20.5400391 180.765234,20.2392578 C180.15,19.9384766 179.650977,19.5966797 179.268164,19.2138672 C178.885352,18.8310547 178.693945,18.4140625 178.693945,17.9628906 C178.693945,17.2382812 178.868262,16.6777344 179.216895,16.28125 C179.565527,15.8847656 180.061133,15.6865234 180.703711,15.6865234 C181.400977,15.6865234 181.906836,15.84375 182.221289,16.1582031 C182.617773,16.5136719 182.816016,17.4228516 182.816016,18.8857422 L182.816016,18.8857422 L188.599219,18.8857422 C188.612891,18.6806641 188.619727,18.4824219 188.619727,18.2910156 C188.619727,17.0742188 188.325781,16.0351562 187.737891,15.1738281 C187.054297,14.1621094 186.158789,13.4443359 185.051367,13.0205078 C183.930273,12.5830078 182.665625,12.3642578 181.257422,12.3642578 C180.450781,12.3642578 179.671484,12.4223633 178.919531,12.5385742 C178.167578,12.6547852 177.419043,12.8598633 176.673926,13.1538086 C175.928809,13.4477539 175.282813,13.8134766 174.735938,14.2509766 C174.189063,14.6884766 173.744727,15.2592773 173.40293,15.9633789 C173.061133,16.6674805 172.890234,17.4570312 172.890234,18.3320312 C172.890234,19.2480469 173.081641,20.0649414 173.464453,20.7827148 C173.847266,21.5004883 174.346289,22.0883789 174.961523,22.5463867 C175.576758,23.0043945 176.253516,23.4179688 176.991797,23.7871094 C177.730078,24.15625 178.468359,24.4946289 179.206641,24.8022461 C179.944922,25.1098633 180.62168,25.4277344 181.236914,25.7558594 C181.852148,26.0839844 182.351172,26.4873047 182.733984,26.9658203 C183.116797,27.4443359 183.308203,27.984375 183.308203,28.5859375 C183.308203,29.2695312 183.099707,29.8027344 182.682715,30.1855469 C182.265723,30.5683594 181.749609,30.7597656 181.134375,30.7597656 C180.026953,30.7597656 179.30918,30.4248047 178.981055,29.7548828 C178.775977,29.2900391 178.673438,28.6337891 178.673438,27.7861328 C178.673438,27.5947266 178.680273,27.3964844 178.693945,27.1914062 L178.693945,27.1914062 L172.890234,27.1914062 C172.876563,27.4511719 172.869727,27.7041016 172.869727,27.9501953 C172.869727,28.8115234 172.958594,29.5703125 173.136328,30.2265625 C173.36875,31.0742188 173.710547,31.7646484 174.161719,32.2978516 C174.612891,32.8310547 175.207617,33.2583008 175.945898,33.5795898 C176.68418,33.9008789 177.466895,34.1196289 178.294043,34.2358398 C179.121191,34.3520508 180.081641,34.4101562 181.175391,34.4101562 Z M199.073242,34.4101562 C201.493164,34.4101562 203.420898,33.8051758 204.856445,32.5952148 C206.291992,31.3852539 207.009766,29.8369141 207.009766,27.9501953 C207.009766,27.0341797 206.818359,26.2001953 206.435547,25.4482422 C206.052734,24.6962891 205.553711,24.0742188 204.938477,23.5820312 C204.323242,23.0898438 203.646484,22.6386719 202.908203,22.2285156 C202.169922,21.8183594 201.431641,21.4594727 200.693359,21.1518555 C199.955078,20.8442383 199.27832,20.5400391 198.663086,20.2392578 C198.047852,19.9384766 197.548828,19.5966797 197.166016,19.2138672 C196.783203,18.8310547 196.591797,18.4140625 196.591797,17.9628906 C196.591797,17.2382812 196.766113,16.6777344 197.114746,16.28125 C197.463379,15.8847656 197.958984,15.6865234 198.601562,15.6865234 C199.298828,15.6865234 199.804688,15.84375 200.119141,16.1582031 C200.515625,16.5136719 200.713867,17.4228516 200.713867,18.8857422 L200.713867,18.8857422 L206.49707,18.8857422 C206.510742,18.6806641 206.517578,18.4824219 206.517578,18.2910156 C206.517578,17.0742188 206.223633,16.0351562 205.635742,15.1738281 C204.952148,14.1621094 204.056641,13.4443359 202.949219,13.0205078 C201.828125,12.5830078 200.563477,12.3642578 199.155273,12.3642578 C198.348633,12.3642578 197.569336,12.4223633 196.817383,12.5385742 C196.06543,12.6547852 195.316895,12.8598633 194.571777,13.1538086 C193.82666,13.4477539 193.180664,13.8134766 192.633789,14.2509766 C192.086914,14.6884766 191.642578,15.2592773 191.300781,15.9633789 C190.958984,16.6674805 190.788086,17.4570312 190.788086,18.3320312 C190.788086,19.2480469 190.979492,20.0649414 191.362305,20.7827148 C191.745117,21.5004883 192.244141,22.0883789 192.859375,22.5463867 C193.474609,23.0043945 194.151367,23.4179688 194.889648,23.7871094 C195.62793,24.15625 196.366211,24.4946289 197.104492,24.8022461 C197.842773,25.1098633 198.519531,25.4277344 199.134766,25.7558594 C199.75,26.0839844 200.249023,26.4873047 200.631836,26.9658203 C201.014648,27.4443359 201.206055,27.984375 201.206055,28.5859375 C201.206055,29.2695312 200.997559,29.8027344 200.580566,30.1855469 C200.163574,30.5683594 199.647461,30.7597656 199.032227,30.7597656 C197.924805,30.7597656 197.207031,30.4248047 196.878906,29.7548828 C196.673828,29.2900391 196.571289,28.6337891 196.571289,27.7861328 C196.571289,27.5947266 196.578125,27.3964844 196.591797,27.1914062 L196.591797,27.1914062 L190.788086,27.1914062 C190.774414,27.4511719 190.767578,27.7041016 190.767578,27.9501953 C190.767578,28.8115234 190.856445,29.5703125 191.03418,30.2265625 C191.266602,31.0742188 191.608398,31.7646484 192.05957,32.2978516 C192.510742,32.8310547 193.105469,33.2583008 193.84375,33.5795898 C194.582031,33.9008789 195.364746,34.1196289 196.191895,34.2358398 C197.019043,34.3520508 197.979492,34.4101562 199.073242,34.4101562 Z M216.683984,34 L216.683984,20.4853516 L223.94375,20.4853516 L223.94375,34 L230.280664,34 L230.280664,3.66894531 L223.94375,3.66894531 L223.94375,15.8095703 L216.683984,15.8095703 L216.683984,3.66894531 L210.326562,3.66894531 L210.326562,34 L216.683984,34 Z M240.036914,34.4101562 C241.199023,34.4101562 242.176562,34.215332 242.969531,33.8256836 C243.7625,33.4360352 244.446094,32.7832031 245.020312,31.8671875 L245.020312,31.8671875 L245.122852,31.8671875 L245.122852,34 L251.254687,34 C251.104297,32.2910156 251.029102,30.8896484 251.029102,29.7958984 L251.029102,29.7958984 L251.029102,12.7949219 L245.122852,12.7949219 L245.122852,27.4990234 C245.122852,28.5654297 244.969043,29.3754883 244.661426,29.9291992 C244.353809,30.4829102 243.7625,30.7597656 242.8875,30.7597656 C242.0125,30.7597656 241.421191,30.4829102 241.113574,29.9291992 C240.805957,29.3754883 240.652148,28.5654297 240.652148,27.4990234 L240.652148,27.4990234 L240.652148,12.7949219 L234.745898,12.7949219 L234.745898,29.7958984 C234.745898,31.2041016 235.258594,32.3251953 236.283984,33.1591797 C237.309375,33.9931641 238.560352,34.4101562 240.036914,34.4101562 Z M260.908398,34 L260.908398,19.3779297 C260.908398,18.2978516 261.062207,17.4672852 261.369824,16.8862305 C261.677441,16.3051758 262.26875,16.0146484 263.14375,16.0146484 C264.01875,16.0146484 264.610059,16.3051758 264.917676,16.8862305 C265.225293,17.4672852 265.379102,18.2978516 265.379102,19.3779297 L265.379102,19.3779297 L265.379102,34 L271.285352,34 L271.285352,16.9990234 C271.285352,15.5908203 270.772656,14.4663086 269.747266,13.6254883 C268.721875,12.784668 267.470898,12.3642578 265.994336,12.3642578 C264.873242,12.3642578 263.909375,12.5625 263.102734,12.9589844 C262.282422,13.3417969 261.585156,13.9980469 261.010937,14.9277344 L261.010937,14.9277344 L260.908398,14.9277344 L260.908398,12.7949219 L255.002148,12.7949219 L255.002148,34 L260.908398,34 Z M281.041602,34.2050781 C281.766211,34.2050781 282.791602,34.1367188 284.117773,34 L284.117773,34 L284.117773,30.3496094 C283.926367,30.4042969 283.577734,30.4316406 283.071875,30.4316406 C282.689062,30.4316406 282.374609,30.3837891 282.128516,30.2880859 C281.882422,30.1923828 281.694434,30.0898438 281.564551,29.9804688 C281.434668,29.8710938 281.338965,29.6762695 281.277441,29.3959961 C281.215918,29.1157227 281.181738,28.8833008 281.174902,28.6987305 C281.168066,28.5141602 281.164648,28.2099609 281.164648,27.7861328 L281.164648,16.4453125 L284.24082,16.4453125 L284.24082,12.7949219 L281.164648,12.7949219 L281.164648,6.78613281 L275.258398,9.43164062 L275.258398,12.7949219 L272.858984,12.7949219 L272.858984,16.4453125 L275.258398,16.4453125 L275.258398,29.5087891 C275.258398,29.8232422 275.292578,30.1513672 275.360937,30.4931641 C275.429297,30.8349609 275.586523,31.2382812 275.832617,31.703125 C276.078711,32.1679688 276.396582,32.578125 276.78623,32.9335938 C277.175879,33.2890625 277.739844,33.5898438 278.478125,33.8359375 C279.216406,34.0820312 280.070898,34.2050781 281.041602,34.2050781 Z" id="AccessHunt" fill="#000000"></path>
        </g>
    </g>
</svg>