<?xml version="1.0" encoding="UTF-8"?>
<svg width="79px" height="79px" viewBox="0 0 79 79" version="1.1" xmlns="http://www.w3.org/2000/svg" xmlns:xlink="http://www.w3.org/1999/xlink">
    <!-- Generator: Sketch 60.1 (88133) - https://sketch.com -->
    <title>Group 2</title>
    <desc>Created with Sketch.</desc>
    <g id="Page-1" stroke="none" stroke-width="1" fill="none" fill-rule="evenodd">
        <g id="Group-2">
            <circle id="Oval" fill="#0091FF" cx="39.5" cy="39.5" r="39.5"></circle>
            <g id="noun_Glasses_1634654-Copy-3" transform="translate(10.000000, 26.000000)" fill="#FFFFFF" fill-rule="nonzero">
                <path d="M52.5,0 C50.42925,0 48.55425,0.84 47.1975,2.1975 L38.67375,10.71825 C37.53375,10.266 36.30075,10.0005 35.00025,10.0005 C30.3465,10.0005 26.46975,13.19475 25.3545,17.5005 L19.64625,17.5005 C18.8145,14.286 16.4415,11.721 13.3455,10.61625 L18.23325,5.73225 C18.507,5.45925 19.10025,4.9995 20.001,4.9995 C21.3795,5.00025 22.5,6.12075 22.5,7.5 L22.5,9.99975 L27.50025,9.99975 L27.50025,7.5 C27.50025,3.357 24.1425,0 20.00025,0 C17.9295,0 16.0545,0.84 14.69775,2.1975 L6.1035,10.78875 C2.51475,12.30825 0,15.86025 0,19.9995 C0,25.52175 4.4775,30 9.99975,30 C14.53875,30 18.32775,26.955 19.55025,22.812 L25.449,22.812 C26.67225,26.955 30.46125,30 35.00025,30 C40.5225,30 45,25.52175 45,19.9995 C45,17.6115 44.1285,15.45 42.732,13.73025 L50.733,5.73225 C51.006,5.45925 51.59925,4.9995 52.5,4.9995 C53.87925,4.9995 54.99975,6.12 54.99975,7.49925 L54.99975,9.999 L60,9.999 L60,7.5 C60,3.357 56.643,0 52.5,0 Z M9.99975,25.0005 C7.23825,25.0005 5.00025,22.761 5.00025,19.9995 C5.00025,17.238 7.23825,15 9.99975,15 C12.76125,15 15,17.238 15,19.9995 C15,22.761 12.76125,25.0005 9.99975,25.0005 Z M35.00025,25.0005 C32.23875,25.0005 30,22.761 30,19.9995 C30,17.238 32.23875,15 35.00025,15 C37.76175,15 39.99975,17.238 39.99975,19.9995 C39.99975,22.761 37.76175,25.0005 35.00025,25.0005 Z" id="Shape"></path>
            </g>
        </g>
    </g>
</svg>