<?xml version="1.0" encoding="UTF-8"?>
<svg width="80px" height="40px" viewBox="0 0 80 40" version="1.1" xmlns="http://www.w3.org/2000/svg" xmlns:xlink="http://www.w3.org/1999/xlink">
    <!-- Generator: Sketch 60.1 (88133) - https://sketch.com -->
    <title>noun_Glasses_1634654 Copy</title>
    <desc>Created with Sketch.</desc>
    <g id="Page-1" stroke="none" stroke-width="1" fill="none" fill-rule="evenodd">
        <g id="noun_Glasses_1634654-Copy" fill="#0091FF" fill-rule="nonzero">
            <path d="M70,0 C67.239,0 64.739,1.12 62.93,2.93 L51.565,14.291 C50.045,13.688 48.401,13.334 46.667,13.334 C40.462,13.334 35.293,17.593 33.806,23.334 L26.195,23.334 C25.086,19.048 21.922,15.628 17.794,14.155 L24.311,7.643 C24.676,7.279 25.467,6.666 26.668,6.666 C28.506,6.667 30,8.161 30,10 L30,13.333 L36.667,13.333 L36.667,10 C36.667,4.476 32.19,0 26.667,0 C23.906,0 21.406,1.12 19.597,2.93 L8.138,14.385 C3.353,16.411 0,21.147 0,26.666 C0,34.029 5.97,40 13.333,40 C19.385,40 24.437,35.94 26.067,30.416 L33.932,30.416 C35.563,35.94 40.615,40 46.667,40 C54.03,40 60,34.029 60,26.666 C60,23.482 58.838,20.6 56.976,18.307 L67.644,7.643 C68.008,7.279 68.799,6.666 70,6.666 C71.839,6.666 73.333,8.16 73.333,9.999 L73.333,13.332 L80,13.332 L80,10 C80,4.476 75.524,0 70,0 Z M13.333,33.334 C9.651,33.334 6.667,30.348 6.667,26.666 C6.667,22.984 9.651,20 13.333,20 C17.015,20 20,22.984 20,26.666 C20,30.348 17.015,33.334 13.333,33.334 Z M46.667,33.334 C42.985,33.334 40,30.348 40,26.666 C40,22.984 42.985,20 46.667,20 C50.349,20 53.333,22.984 53.333,26.666 C53.333,30.348 50.349,33.334 46.667,33.334 Z" id="Shape"></path>
        </g>
    </g>
</svg>